<svg width="314" height="70" viewBox="0 0 314 70" fill="none" xmlns="http://www.w3.org/2000/svg">
<mask id="path-1-inside-1" fill="white">
<path fill-rule="evenodd" clip-rule="evenodd" d="M27.9629 2.53998C28.1897 1.07825 29.448 0 30.9272 0H39.0776C40.5569 0 41.8154 1.07825 42.0422 2.53998L43.0796 9.22495C44.6138 9.71381 46.0872 10.3381 47.4863 11.0839L52.9771 7.06833C54.1711 6.1951 55.8235 6.32254 56.8694 7.36853L62.6326 13.1317C63.6787 14.1777 63.8059 15.83 62.9329 17.024L58.7913 22.6868C59.459 24.0223 60.0173 25.4218 60.4551 26.8737L67.46 27.9606C68.9219 28.1875 70 29.4459 70 30.9252V39.0755C70 40.5548 68.9219 41.8132 67.46 42.0401L60.155 43.1736C59.707 44.4818 59.1599 45.744 58.5225 46.9511L62.9292 52.9768C63.8025 54.1708 63.675 55.8231 62.6292 56.869L56.866 62.6322C55.8198 63.6782 54.1677 63.8056 52.9736 62.9324L46.7725 58.3972C45.6328 58.9611 44.4468 59.4456 43.2217 59.8436L42.0398 67.46C41.813 68.9218 40.5547 70 39.0754 70H30.925C29.4458 70 28.1873 68.9218 27.9604 67.46L26.7786 59.8436C25.553 59.4453 24.3662 58.9604 23.2258 58.3961L17.0264 62.9301C15.8323 63.8033 14.1799 63.6759 13.134 62.6299L7.37085 56.8667C6.32471 55.8207 6.19751 54.1684 7.07056 52.9744L11.4771 46.9492C10.8401 45.7425 10.2932 44.4809 9.84546 43.1732L2.54004 42.0396C1.07812 41.8128 0 40.5543 0 39.0751V30.9247C0 29.4455 1.07812 28.187 2.54004 27.9602L9.54541 26.8731C9.98315 25.4209 10.5417 24.0211 11.2097 22.6854L7.07031 17.0253C6.19702 15.8313 6.32446 14.179 7.37036 13.133L13.1335 7.36981C14.1797 6.32385 15.8318 6.19641 17.0259 7.06964L22.5144 11.0837C23.9148 10.3372 25.3901 9.71243 26.9258 9.22339L27.9629 2.53998Z"/>
</mask>
<path d="M27.9629 2.53998L30.9274 3L30.9274 2.99996L27.9629 2.53998ZM42.0422 2.53998L39.0777 2.99996L39.0777 3L42.0422 2.53998ZM43.0796 9.22495L40.1151 9.68497L40.3998 11.5197L42.1688 12.0833L43.0796 9.22495ZM47.4863 11.0839L46.0752 13.7313L47.7371 14.6172L49.2573 13.5054L47.4863 11.0839ZM52.9771 7.06833L51.2062 4.64676L51.2061 4.64682L52.9771 7.06833ZM56.8694 7.36853L54.748 9.48976L54.7481 9.48985L56.8694 7.36853ZM62.6326 13.1317L60.5112 15.253L60.5114 15.2532L62.6326 13.1317ZM62.9329 17.024L65.3543 18.795L65.3545 18.7947L62.9329 17.024ZM58.7913 22.6868L56.3698 20.9158L55.2899 22.3923L56.108 24.0284L58.7913 22.6868ZM60.4551 26.8737L57.5828 27.7397L58.1281 29.5485L59.9951 29.8382L60.4551 26.8737ZM67.46 27.9606L67 30.9252L67 30.9252L67.46 27.9606ZM67.46 42.0401L67 39.0755L66.9999 39.0755L67.46 42.0401ZM60.155 43.1736L59.695 40.2091L57.904 40.487L57.3168 42.2016L60.155 43.1736ZM58.5225 46.9511L55.8696 45.5503L54.994 47.2085L56.1009 48.7221L58.5225 46.9511ZM62.9292 52.9768L60.5077 54.7477L60.5078 54.7478L62.9292 52.9768ZM62.6292 56.869L64.7505 58.9904L64.7505 58.9903L62.6292 56.869ZM56.866 62.6322L58.9871 64.7537L58.9873 64.7536L56.866 62.6322ZM52.9736 62.9324L51.2027 65.3539L51.2028 65.354L52.9736 62.9324ZM46.7725 58.3972L48.5434 55.9757L47.0739 54.9009L45.442 55.7083L46.7725 58.3972ZM43.2217 59.8436L42.2947 56.9904L40.5401 57.5605L40.2572 59.3836L43.2217 59.8436ZM42.0398 67.46L39.0753 67L39.0753 67L42.0398 67.46ZM27.9604 67.46L30.925 67L30.925 67L27.9604 67.46ZM26.7786 59.8436L29.7431 59.3835L29.4602 57.5606L27.7057 56.9904L26.7786 59.8436ZM23.2258 58.3961L24.5564 55.7073L22.9245 54.8998L21.4549 55.9746L23.2258 58.3961ZM17.0264 62.9301L18.7972 65.3517L18.7973 65.3516L17.0264 62.9301ZM13.134 62.6299L15.2554 60.5087L15.2554 60.5086L13.134 62.6299ZM7.37085 56.8667L9.49217 54.7454L9.49201 54.7452L7.37085 56.8667ZM7.07056 52.9744L4.64905 51.2035L4.64887 51.2037L7.07056 52.9744ZM11.4771 46.9492L13.8986 48.7202L15.0053 47.2069L14.1301 45.5488L11.4771 46.9492ZM9.84546 43.1732L12.6837 42.2014L12.0965 40.4866L10.3055 40.2087L9.84546 43.1732ZM2.54004 42.0396L3.00005 39.0751L3 39.0751L2.54004 42.0396ZM2.54004 27.9602L3 30.9247L3.00006 30.9247L2.54004 27.9602ZM9.54541 26.8731L10.0054 29.8377L11.8725 29.5479L12.4178 27.7389L9.54541 26.8731ZM11.2097 22.6854L13.8929 24.0272L14.7111 22.391L13.6312 20.9144L11.2097 22.6854ZM7.07031 17.0253L9.49184 15.2543L9.49176 15.2542L7.07031 17.0253ZM7.37036 13.133L5.24904 11.0117L5.24895 11.0118L7.37036 13.133ZM13.1335 7.36981L11.0124 5.24831L11.0122 5.24849L13.1335 7.36981ZM17.0259 7.06964L18.7969 4.64815L18.7968 4.64807L17.0259 7.06964ZM22.5144 11.0837L20.7434 13.5052L22.2636 14.617L23.9256 13.7311L22.5144 11.0837ZM26.9258 9.22339L27.8361 12.0819L29.6055 11.5184L29.8903 9.68341L26.9258 9.22339ZM30.9272 -3C27.9686 -3 25.452 -0.843327 24.9984 2.07999L30.9274 2.99996L30.9272 3V-3ZM39.0776 -3H30.9272V3H39.0776V-3ZM45.0068 2.07999C44.5531 -0.843624 42.036 -3 39.0776 -3V3L39.0777 2.99996L45.0068 2.07999ZM46.0441 8.76492L45.0068 2.07995L39.0777 3L40.1151 9.68497L46.0441 8.76492ZM48.8975 8.43652C47.34 7.60638 45.6993 6.91109 43.9904 6.36655L42.1688 12.0833C43.5282 12.5165 44.8343 13.0699 46.0752 13.7313L48.8975 8.43652ZM49.2573 13.5054L54.748 9.48984L51.2061 4.64682L45.7154 8.66241L49.2573 13.5054ZM54.7479 9.4899L54.748 9.48976L58.9908 5.2473C56.8988 3.15514 53.5942 2.90045 51.2062 4.64676L54.7479 9.4899ZM54.7481 9.48985L60.5112 15.253L64.7539 11.0104L58.9907 5.24721L54.7481 9.48985ZM60.5114 15.2532L60.5112 15.2533L65.3545 18.7947C67.1003 16.4071 66.8463 13.1025 64.7537 11.0102L60.5114 15.2532ZM60.5114 15.253L56.3698 20.9158L61.2127 24.4578L65.3543 18.795L60.5114 15.253ZM63.3274 26.0077C62.8399 24.3908 62.2181 22.8322 61.4746 21.3452L56.108 24.0284C56.6999 25.2123 57.1948 26.4528 57.5828 27.7397L63.3274 26.0077ZM67.92 24.9961L60.9151 23.9092L59.9951 29.8382L67 30.9252L67.92 24.9961ZM73 30.9252C73 27.9668 70.8437 25.4497 67.9199 24.9961L67 30.9252V30.9252H73ZM73 39.0755V30.9252H67V39.0755H73ZM67.9199 45.0046C70.8437 44.5509 73 42.0339 73 39.0755H67V39.0755L67.9199 45.0046ZM60.6151 46.1381L67.92 45.0046L66.9999 39.0755L59.695 40.2091L60.6151 46.1381ZM61.1753 48.352C61.885 47.008 62.4943 45.6025 62.9932 44.1455L57.3168 42.2016C56.9198 43.3611 56.4348 44.4799 55.8696 45.5503L61.1753 48.352ZM65.3507 51.2058L60.944 45.1802L56.1009 48.7221L60.5077 54.7477L65.3507 51.2058ZM64.7505 58.9903C66.8423 56.8983 67.0972 53.5938 65.3506 51.2057L60.5078 54.7478V54.7478L64.7505 58.9903ZM58.9873 64.7536L64.7505 58.9904L60.5078 54.7477L54.7446 60.5109L58.9873 64.7536ZM51.2028 65.354C53.5909 67.1004 56.8951 66.8454 58.9871 64.7537L54.7448 60.5108L54.7445 60.5108L51.2028 65.354ZM45.0015 60.8187L51.2027 65.3539L54.7446 60.5109L48.5434 55.9757L45.0015 60.8187ZM44.1486 62.6968C45.5131 62.2535 46.834 61.7139 48.1029 61.086L45.442 55.7083C44.4317 56.2083 43.3804 56.6377 42.2947 56.9904L44.1486 62.6968ZM45.0043 67.92L46.1862 60.3037L40.2572 59.3836L39.0753 67L45.0043 67.92ZM39.0754 73C42.0341 73 44.5507 70.8433 45.0043 67.92L39.0753 67L39.0754 67V73ZM30.925 73H39.0754V67H30.925V73ZM24.9959 67.92C25.4496 70.8436 27.9667 73 30.925 73V67L30.925 67L24.9959 67.92ZM23.814 60.3036L24.9959 67.92L30.925 67L29.7431 59.3835L23.814 60.3036ZM21.8953 61.0849C23.1649 61.7132 24.4865 62.2532 25.8514 62.6967L27.7057 56.9904C26.6195 56.6375 25.5675 56.2076 24.5564 55.7073L21.8953 61.0849ZM18.7973 65.3516L24.9968 60.8176L21.4549 55.9746L15.2554 60.5086L18.7973 65.3516ZM11.0126 64.7511C13.1046 66.8433 16.4093 67.098 18.7972 65.3517L15.2555 60.5085L15.2554 60.5087L11.0126 64.7511ZM5.24953 58.988L11.0127 64.7512L15.2554 60.5086L9.49217 54.7454L5.24953 58.988ZM4.64887 51.2037C2.90307 53.5913 3.1571 56.8959 5.24968 58.9882L9.49201 54.7452L9.49224 54.7452L4.64887 51.2037ZM9.05554 45.1783L4.64905 51.2035L9.49207 54.7454L13.8986 48.7202L9.05554 45.1783ZM7.00724 44.1451C7.50595 45.6015 8.11494 47.0064 8.82398 48.3497L14.1301 45.5488C13.5652 44.4786 13.0805 43.3602 12.6837 42.2014L7.00724 44.1451ZM2.08002 45.0041L9.38544 46.1378L10.3055 40.2087L3.00005 39.0751L2.08002 45.0041ZM-3 39.0751C-3 42.0335 -0.843705 44.5505 2.08008 45.0042L3 39.0751L3 39.0751H-3ZM-3 30.9247V39.0751H3V30.9247H-3ZM2.08008 24.9957C-0.843705 25.4493 -3 27.9663 -3 30.9247H3L3 30.9247L2.08008 24.9957ZM9.08539 23.9086L2.08002 24.9957L3.00006 30.9247L10.0054 29.8377L9.08539 23.9086ZM8.52652 21.3436C7.78276 22.8308 7.16063 24.3898 6.67306 26.0073L12.4178 27.7389C12.8057 26.452 13.3007 25.2113 13.8929 24.0272L8.52652 21.3436ZM4.64879 18.7962L8.78819 24.4563L13.6312 20.9144L9.49184 15.2543L4.64879 18.7962ZM5.24895 11.0118C3.15718 13.1037 2.90226 16.4083 4.64887 18.7963L9.49176 15.2542L9.49177 15.2542L5.24895 11.0118ZM11.0122 5.24849L5.24904 11.0117L9.49168 15.2543L15.2549 9.49113L11.0122 5.24849ZM18.7968 4.64807C16.4086 2.90165 13.1044 3.15665 11.0124 5.24831L15.2547 9.49132L15.255 9.49121L18.7968 4.64807ZM24.2854 8.66221L18.7969 4.64815L15.2549 9.49114L20.7434 13.5052L24.2854 8.66221ZM26.0154 6.36484C24.3051 6.90951 22.6623 7.60527 21.1032 8.43635L23.9256 13.7311C25.1673 13.0692 26.4751 12.5154 27.8361 12.0819L26.0154 6.36484ZM24.9984 2.07995L23.9613 8.76336L29.8903 9.68341L30.9274 3L24.9984 2.07995Z" fill="white" mask="url(#path-1-inside-1)"/>
<circle cx="35" cy="35" r="14.75" stroke="white" stroke-width="3" stroke-linecap="round"/>
<mask id="path-4-inside-2" fill="white">
<path fill-rule="evenodd" clip-rule="evenodd" d="M108.912 12.54C109.139 11.0782 110.397 10 111.877 10H118.128C119.608 10 120.866 11.0782 121.093 12.54L121.926 17.9071C123.241 18.3261 124.504 18.8613 125.703 19.5005L130.113 16.2754C131.307 15.4021 132.959 15.5296 134.005 16.5755L138.426 20.9961C139.471 22.0421 139.599 23.6944 138.726 24.8884L135.393 29.4459C135.965 30.5906 136.444 31.7902 136.819 33.0347L142.46 33.91C143.922 34.1368 145 35.3953 145 36.8745V43.1262C145 44.6054 143.922 45.8639 142.46 46.0907L136.562 47.006C136.177 48.1274 135.708 49.2094 135.162 50.2442L138.722 55.1125C139.596 56.3065 139.468 57.9588 138.422 59.0048L134.002 63.4254C132.956 64.4713 131.303 64.5988 130.109 63.7255L125.09 60.0549C124.114 60.5382 123.097 60.9535 122.047 61.2946L121.09 67.46C120.864 68.9218 119.605 70 118.126 70H111.874C110.395 70 109.136 68.9218 108.91 67.46L107.953 61.2943C106.902 60.953 105.885 60.5374 104.908 60.0537L99.8904 63.7233C98.6965 64.5965 97.0442 64.4691 95.9983 63.4231L91.5776 59.0025C90.5317 57.9565 90.4043 56.3042 91.2773 55.1102L94.8376 50.242C94.2917 49.2077 93.823 48.1264 93.4392 47.0057L87.54 46.0903C86.0781 45.8635 85 44.605 85 43.1258V36.8741C85 35.3949 86.0781 34.1364 87.54 33.9096L93.1819 33.0341C93.5571 31.7893 94.0361 30.5894 94.6086 29.4444L91.2773 24.8895C90.4041 23.6955 90.5315 22.0432 91.5774 20.9972L95.998 16.5766C97.0439 15.5306 98.6963 15.4032 99.8904 16.2764L104.298 19.5002C105.499 18.8604 106.763 18.3248 108.08 17.9056L108.912 12.54Z"/>
</mask>
<path d="M108.912 12.54L111.877 13.0001L111.877 13L108.912 12.54ZM121.093 12.54L124.058 12.08V12.08L121.093 12.54ZM121.926 17.9071L118.961 18.3671L119.246 20.2018L121.015 20.7655L121.926 17.9071ZM125.703 19.5005L124.292 22.1479L125.954 23.0338L127.474 21.922L125.703 19.5005ZM130.113 16.2754L131.884 18.6969L131.884 18.6968L130.113 16.2754ZM134.005 16.5755L131.883 18.6968L131.884 18.6969L134.005 16.5755ZM138.426 20.9961L140.547 18.8749L140.547 18.8748L138.426 20.9961ZM138.726 24.8884L141.147 26.6593L141.148 26.6591L138.726 24.8884ZM135.393 29.4459L132.971 27.6749L131.892 29.1513L132.709 30.7873L135.393 29.4459ZM136.819 33.0347L133.947 33.9007L134.492 35.7095L136.359 35.9992L136.819 33.0347ZM142.46 33.91L142 36.8745L142 36.8745L142.46 33.91ZM142.46 46.0907L142 43.1262L142 43.1262L142.46 46.0907ZM136.562 47.006L136.102 44.0414L134.311 44.3194L133.723 46.034L136.562 47.006ZM135.162 50.2442L132.509 48.8435L131.634 50.5016L132.741 52.0152L135.162 50.2442ZM138.722 55.1125L136.301 56.8834L136.301 56.8836L138.722 55.1125ZM138.422 59.0048L140.544 61.1261L140.544 61.126L138.422 59.0048ZM134.002 63.4254L131.88 61.304L131.88 61.3041L134.002 63.4254ZM130.109 63.7255L128.338 66.1471L128.339 66.1471L130.109 63.7255ZM125.09 60.0549L126.861 57.6334L125.392 56.5587L123.76 57.366L125.09 60.0549ZM122.047 61.2946L121.12 58.4414L119.366 59.0114L119.083 60.8345L122.047 61.2946ZM121.09 67.46L118.126 67L118.126 67L121.09 67.46ZM108.91 67.46L111.874 67L111.874 67L108.91 67.46ZM107.953 61.2943L110.917 60.8343L110.635 59.0113L108.88 58.4412L107.953 61.2943ZM104.908 60.0537L106.239 57.365L104.607 56.5573L103.137 57.6322L104.908 60.0537ZM99.8904 63.7233L98.1194 61.3018L98.1193 61.3019L99.8904 63.7233ZM95.9983 63.4231L98.1197 61.3019L98.1196 61.3017L95.9983 63.4231ZM91.5776 59.0025L89.4562 61.1237L89.4563 61.1239L91.5776 59.0025ZM91.2773 55.1102L88.8558 53.3393L88.8557 53.3395L91.2773 55.1102ZM94.8376 50.242L97.2592 52.0129L98.3659 50.4997L97.4908 48.8416L94.8376 50.242ZM93.4392 47.0057L96.2774 46.0337L95.6902 44.319L93.8992 44.0411L93.4392 47.0057ZM87.54 46.0903L88 43.1258L88 43.1258L87.54 46.0903ZM87.54 33.9096L88 36.8741L88.0001 36.8741L87.54 33.9096ZM93.1819 33.0341L93.6419 35.9987L95.5089 35.709L96.0542 33.9L93.1819 33.0341ZM94.6086 29.4444L97.2919 30.786L98.11 29.1499L97.0301 27.6734L94.6086 29.4444ZM91.2773 24.8895L93.6988 23.1185L93.6988 23.1184L91.2773 24.8895ZM91.5774 20.9972L89.4561 18.8759L89.456 18.8759L91.5774 20.9972ZM95.998 16.5766L98.1194 18.6979L98.1194 18.6979L95.998 16.5766ZM99.8904 16.2764L101.661 13.8549L101.661 13.8549L99.8904 16.2764ZM104.298 19.5002L102.527 21.9217L104.048 23.0335L105.709 22.1476L104.298 19.5002ZM108.08 17.9056L108.99 20.7642L110.759 20.2008L111.044 18.3657L108.08 17.9056ZM111.877 7C108.918 7 106.401 9.15667 105.948 12.08L111.877 13L111.877 13V7ZM118.128 7H111.877V13H118.128V7ZM124.058 12.08C123.604 9.15638 121.087 7 118.128 7V13L118.128 13L124.058 12.08ZM124.89 17.4472L124.058 12.08L118.128 13L118.961 18.3671L124.89 17.4472ZM127.114 16.8531C125.757 16.1295 124.326 15.5234 122.837 15.0487L121.015 20.7655C122.155 21.1289 123.251 21.593 124.292 22.1479L127.114 16.8531ZM127.474 21.922L131.884 18.6969L128.342 13.8538L123.932 17.079L127.474 21.922ZM131.884 18.6968L131.883 18.6968L136.126 14.4543C134.034 12.3623 130.73 12.1073 128.342 13.854L131.884 18.6968ZM131.884 18.6969L136.304 23.1175L140.547 18.8748L136.126 14.4542L131.884 18.6969ZM136.304 23.1174L136.304 23.1177L141.148 26.6591C142.894 24.2712 142.639 20.9668 140.547 18.8749L136.304 23.1174ZM136.304 23.1175L132.971 27.6749L137.814 31.2168L141.147 26.6593L136.304 23.1175ZM139.691 32.1686C139.266 30.7593 138.724 29.4007 138.076 28.1044L132.709 30.7873C133.206 31.7804 133.621 32.8211 133.947 33.9007L139.691 32.1686ZM142.92 30.9455L137.279 30.0702L136.359 35.9992L142 36.8745L142.92 30.9455ZM148 36.8745C148 33.9161 145.844 31.3991 142.92 30.9455L142 36.8745L142 36.8745H148ZM148 43.1262V36.8745H142V43.1262H148ZM142.92 49.0552C145.844 48.6016 148 46.0846 148 43.1262H142L142 43.1262L142.92 49.0552ZM137.022 49.9705L142.92 49.0552L142 43.1262L136.102 44.0414L137.022 49.9705ZM137.815 51.645C138.434 50.4734 138.965 49.2481 139.4 47.9779L133.723 46.034C133.39 47.0067 132.983 47.9454 132.509 48.8435L137.815 51.645ZM141.144 53.3416L137.584 48.4733L132.741 52.0152L136.301 56.8834L141.144 53.3416ZM140.544 61.126C142.636 59.0341 142.89 55.7295 141.144 53.3415L136.301 56.8836L136.301 56.8836L140.544 61.126ZM136.123 65.5467L140.544 61.1261L136.301 56.8834L131.88 61.304L136.123 65.5467ZM128.339 66.1471C130.726 67.8934 134.031 67.6388 136.123 65.5466L131.88 61.3041L131.88 61.304L128.339 66.1471ZM123.319 62.4765L128.338 66.1471L131.88 61.304L126.861 57.6334L123.319 62.4765ZM122.974 64.1478C124.164 63.7614 125.315 63.291 126.421 62.7438L123.76 57.366C122.912 57.7854 122.031 58.1456 121.12 58.4414L122.974 64.1478ZM124.055 67.9201L125.012 61.7547L119.083 60.8345L118.126 67L124.055 67.9201ZM118.126 73C121.085 73 123.601 70.8434 124.055 67.92L118.126 67L118.126 67V73ZM111.874 73H118.126V67H111.874V73ZM105.945 67.92C106.399 70.8436 108.916 73 111.874 73V67L111.874 67L105.945 67.92ZM104.988 61.7544L105.945 67.92L111.874 67L110.917 60.8343L104.988 61.7544ZM103.577 62.7424C104.684 63.2901 105.836 63.7608 107.026 64.1475L108.88 58.4412C107.969 58.1451 107.087 57.7846 106.239 57.365L103.577 62.7424ZM101.661 66.1448L106.679 62.4752L103.137 57.6322L98.1194 61.3018L101.661 66.1448ZM93.8769 65.5443C95.9688 67.6364 99.2735 67.8913 101.661 66.1447L98.1193 61.3019L98.1197 61.3019L93.8769 65.5443ZM89.4563 61.1239L93.877 65.5444L98.1196 61.3017L93.6989 56.8812L89.4563 61.1239ZM88.8557 53.3395C87.1096 55.7274 87.3645 59.0318 89.4562 61.1237L93.699 56.8813L93.699 56.881L88.8557 53.3395ZM92.4161 48.4711L88.8558 53.3393L93.6989 56.8812L97.2592 52.0129L92.4161 48.4711ZM90.601 47.9776C91.0358 49.2471 91.5666 50.4716 92.1845 51.6424L97.4908 48.8416C97.0169 47.9438 96.6102 47.0057 96.2774 46.0337L90.601 47.9776ZM87.08 49.0548L92.9792 49.9702L93.8992 44.0411L88 43.1258L87.08 49.0548ZM82 43.1258C82 46.0842 84.1563 48.6012 87.0801 49.0548L88 43.1258L88 43.1258H82ZM82 36.8741V43.1258H88V36.8741H82ZM87.08 30.9451C84.1563 31.3987 82 33.9157 82 36.8741H88L88 36.8741L87.08 30.9451ZM92.7219 30.0696L87.08 30.9451L88.0001 36.8741L93.6419 35.9987L92.7219 30.0696ZM91.9254 28.1027C91.2772 29.3989 90.7347 30.758 90.3095 32.1683L96.0542 33.9C96.3796 32.8206 96.795 31.7798 97.2919 30.786L91.9254 28.1027ZM88.8559 26.6605L92.1872 31.2154L97.0301 27.6734L93.6988 23.1185L88.8559 26.6605ZM89.456 18.8759C87.3642 20.9679 87.1093 24.2725 88.8559 26.6605L93.6988 23.1184L93.6988 23.1185L89.456 18.8759ZM93.8767 14.4553L89.4561 18.8759L93.6987 23.1185L98.1194 18.6979L93.8767 14.4553ZM101.661 13.8549C99.2733 12.1086 95.9686 12.3632 93.8767 14.4553L98.1194 18.6979L98.1195 18.698L101.661 13.8549ZM106.069 17.0787L101.661 13.8549L98.1194 18.6979L102.527 21.9217L106.069 17.0787ZM107.169 15.0471C105.678 15.5219 104.246 16.1284 102.887 16.8528L105.709 22.1476C106.751 21.5923 107.848 21.1277 108.99 20.7642L107.169 15.0471ZM105.948 12.0799L105.115 17.4455L111.044 18.3657L111.877 13.0001L105.948 12.0799Z" fill="white" mask="url(#path-4-inside-2)"/>
<circle cx="115" cy="40" r="12.4286" stroke="white" stroke-width="3" stroke-linecap="round"/>
<mask id="path-7-inside-3" fill="white">
<path fill-rule="evenodd" clip-rule="evenodd" d="M179.862 22.54C180.089 21.0782 181.347 20 182.826 20H187.179C188.658 20 189.917 21.0782 190.144 22.54L190.772 26.5895C191.867 26.9387 192.92 27.3846 193.919 27.9172L197.248 25.4823C198.442 24.6091 200.094 24.7365 201.141 25.7825L204.219 28.8605C205.264 29.9065 205.392 31.5588 204.519 32.7528L201.994 36.2051C202.471 37.159 202.87 38.1585 203.182 39.1954L207.46 39.8593C208.922 40.0861 210 41.3445 210 42.8238V47.1767C210 48.6559 208.922 49.9144 207.46 50.1412L202.968 50.8383C202.647 51.7732 202.256 52.6753 201.801 53.538L204.515 57.249C205.388 58.443 205.26 60.0953 204.214 61.1413L201.136 64.2193C200.091 65.2652 198.438 65.3927 197.244 64.5195L193.407 61.7131C192.594 62.1155 191.747 62.4612 190.873 62.7453L190.141 67.46C189.914 68.9218 188.656 70 187.177 70H182.824C181.344 70 180.086 68.9218 179.859 67.46L179.128 62.7455C178.252 62.461 177.405 62.1146 176.59 61.7115L172.754 64.5165C171.561 65.3897 169.908 65.2623 168.862 64.2163L165.784 61.1383C164.738 60.0923 164.611 58.44 165.484 57.246L168.198 53.5353C167.743 52.6733 167.352 51.7721 167.032 50.8381L162.54 50.141C161.078 49.9142 160 48.6557 160 47.1765V42.8236C160 41.3443 161.078 40.0859 162.54 39.8591L166.818 39.1952C167.131 38.1578 167.53 37.1578 168.007 36.2036L165.484 32.7537C164.61 31.5597 164.738 29.9074 165.784 28.8614L168.862 25.7834C169.908 24.7375 171.56 24.61 172.754 25.4832L176.082 27.9168C177.082 27.3835 178.136 26.9371 179.233 26.5878L179.862 22.54Z"/>
</mask>
<path d="M179.862 22.54L176.897 22.0795L176.897 22.0799L179.862 22.54ZM190.144 22.54L187.179 23L187.179 23L190.144 22.54ZM190.772 26.5895L187.807 27.0496L188.092 28.8841L189.861 29.4479L190.772 26.5895ZM193.919 27.9172L192.508 30.5645L194.17 31.4505L195.69 30.3387L193.919 27.9172ZM197.248 25.4823L199.019 27.9039L199.019 27.9037L197.248 25.4823ZM201.141 25.7825L203.262 23.6612L203.262 23.6611L201.141 25.7825ZM204.219 28.8605L206.34 26.7393L206.34 26.7392L204.219 28.8605ZM204.519 32.7528L206.94 34.5238L206.94 34.5235L204.519 32.7528ZM201.994 36.2051L199.572 34.4342L198.493 35.9105L199.311 37.5466L201.994 36.2051ZM203.182 39.1954L200.31 40.0611L200.855 41.8702L202.722 42.16L203.182 39.1954ZM207.46 39.8593L207 42.8238L207 42.8238L207.46 39.8593ZM207.46 50.1412L207 47.1767L207 47.1767L207.46 50.1412ZM202.968 50.8383L202.508 47.8737L200.716 48.1517L200.129 49.8666L202.968 50.8383ZM201.801 53.538L199.148 52.1372L198.272 53.7954L199.379 55.309L201.801 53.538ZM204.515 57.249L202.093 59.02L202.093 59.0201L204.515 57.249ZM204.214 61.1413L202.093 59.0198L202.093 59.02L204.214 61.1413ZM201.136 64.2193L199.015 62.098L199.015 62.098L201.136 64.2193ZM197.244 64.5195L195.473 66.9409L195.473 66.941L197.244 64.5195ZM193.407 61.7131L195.178 59.2916L193.709 58.217L192.077 59.0241L193.407 61.7131ZM190.873 62.7453L189.946 59.8922L188.191 60.4623L187.908 62.2854L190.873 62.7453ZM190.141 67.46L193.106 67.9205L193.106 67.9199L190.141 67.46ZM179.859 67.46L182.824 67L182.824 66.9999L179.859 67.46ZM179.128 62.7455L182.092 62.2854L181.809 60.4625L180.055 59.8923L179.128 62.7455ZM176.59 61.7115L177.92 59.0227L176.288 58.2152L174.819 59.29L176.59 61.7115ZM172.754 64.5165L170.983 62.095L170.983 62.0951L172.754 64.5165ZM168.862 64.2163L166.741 66.3376L166.741 66.3378L168.862 64.2163ZM165.784 61.1383L163.663 63.2596L163.663 63.2596L165.784 61.1383ZM165.484 57.246L163.062 55.4751L163.062 55.4753L165.484 57.246ZM168.198 53.5353L170.619 55.3062L171.726 53.7927L170.851 52.1346L168.198 53.5353ZM167.032 50.8381L169.87 49.8662L169.283 48.1515L167.492 47.8735L167.032 50.8381ZM162.54 50.141L163 47.1765L163 47.1765L162.54 50.141ZM162.54 39.8591L163 42.8236L163 42.8236L162.54 39.8591ZM166.818 39.1952L167.278 42.1598L169.145 41.87L169.69 40.0611L166.818 39.1952ZM168.007 36.2036L170.69 37.5451L171.508 35.909L170.428 34.4326L168.007 36.2036ZM165.484 32.7537L167.905 30.9827L167.905 30.9826L165.484 32.7537ZM165.784 28.8614L167.905 30.9829L167.905 30.9827L165.784 28.8614ZM168.862 25.7834L170.983 27.9047L170.983 27.9047L168.862 25.7834ZM172.754 25.4832L174.525 23.0618L174.525 23.0617L172.754 25.4832ZM176.082 27.9168L174.311 30.3383L175.831 31.4501L177.493 30.5642L176.082 27.9168ZM179.233 26.5878L180.144 29.4464L181.913 28.883L182.198 27.0479L179.233 26.5878ZM182.826 17C179.867 17 177.351 19.1567 176.897 22.0795L182.826 23.0004L182.826 23V17ZM187.179 17H182.826V23H187.179V17ZM193.108 22.08C192.654 19.1567 190.138 17 187.179 17V23L187.179 23L193.108 22.08ZM193.736 26.1295L193.108 22.0799L187.179 23L187.807 27.0496L193.736 26.1295ZM195.33 25.2699C194.173 24.6528 192.953 24.136 191.683 23.7312L189.861 29.4479C190.782 29.7414 191.667 30.1164 192.508 30.5645L195.33 25.2699ZM195.69 30.3387L199.019 27.9039L195.477 23.0608L192.148 25.4956L195.69 30.3387ZM199.019 27.9037L199.019 27.904L203.262 23.6611C201.17 21.5694 197.865 21.3142 195.477 23.0609L199.019 27.9037ZM199.019 27.9038L202.097 30.9818L206.34 26.7392L203.262 23.6612L199.019 27.9038ZM202.097 30.9817L202.097 30.9821L206.94 34.5235C208.687 32.1356 208.432 28.8312 206.34 26.7393L202.097 30.9817ZM202.097 30.9818L199.572 34.4342L204.415 37.9761L206.94 34.5238L202.097 30.9818ZM206.055 38.3298C205.692 37.1274 205.23 35.9688 204.677 34.8637L199.311 37.5466C199.712 38.3491 200.047 39.1896 200.31 40.0611L206.055 38.3298ZM207.92 36.8947L203.642 36.2309L202.722 42.16L207 42.8238L207.92 36.8947ZM213 42.8238C213 39.8654 210.844 37.3484 207.92 36.8947L207 42.8238L207 42.8238H213ZM213 47.1767V42.8238H207V47.1767H213ZM207.92 53.1057C210.844 52.6521 213 50.1351 213 47.1767H207L207 47.1767L207.92 53.1057ZM203.428 53.8028L207.92 53.1057L207 47.1767L202.508 47.8737L203.428 53.8028ZM204.453 54.9389C204.981 53.9399 205.435 52.8945 205.806 51.8099L200.129 49.8666C199.86 50.652 199.531 51.4107 199.148 52.1372L204.453 54.9389ZM206.936 55.478L204.222 51.767L199.379 55.309L202.093 59.02L206.936 55.478ZM206.336 63.2628C208.428 61.1708 208.683 57.8661 206.936 55.478L202.093 59.0201L202.093 59.0198L206.336 63.2628ZM203.258 66.3405L206.336 63.2626L202.093 59.02L199.015 62.098L203.258 66.3405ZM195.473 66.941C197.861 68.6873 201.166 68.4327 203.258 66.3405L199.015 62.098L199.015 62.0979L195.473 66.941ZM191.636 64.1346L195.473 66.9409L199.015 62.098L195.178 59.2916L191.636 64.1346ZM191.8 65.5985C192.813 65.2691 193.794 64.8684 194.737 64.4022L192.077 59.0241C191.393 59.3626 190.681 59.6533 189.946 59.8922L191.8 65.5985ZM193.106 67.9199L193.837 63.2052L187.908 62.2854L187.177 67.0001L193.106 67.9199ZM187.177 73C190.136 73 192.652 70.8433 193.106 67.9205L187.177 66.9995L187.177 67V73ZM182.824 73H187.177V67H182.824V73ZM176.895 67.92C177.348 70.8433 179.865 73 182.824 73V67L182.824 67L176.895 67.92ZM176.163 63.2056L176.895 67.9201L182.824 66.9999L182.092 62.2854L176.163 63.2056ZM175.259 64.4004C176.203 64.8674 177.186 65.2688 178.201 65.5986L180.055 59.8923C179.319 59.6532 178.606 59.3619 177.92 59.0227L175.259 64.4004ZM174.525 66.938L178.361 64.133L174.819 59.29L170.983 62.095L174.525 66.938ZM166.741 66.3378C168.833 68.4294 172.137 68.6846 174.525 66.9379L170.983 62.0951L170.983 62.0948L166.741 66.3378ZM163.663 63.2596L166.741 66.3376L170.983 62.095L167.906 59.017L163.663 63.2596ZM163.062 55.4753C161.316 57.8633 161.571 61.1676 163.663 63.2596L167.906 59.0171L167.906 59.0168L163.062 55.4753ZM165.776 51.7643L163.062 55.4751L167.905 59.017L170.619 55.3062L165.776 51.7643ZM164.194 51.8099C164.565 52.8928 165.018 53.9373 165.545 54.9359L170.851 52.1346C170.468 51.4094 170.139 50.6515 169.87 49.8662L164.194 51.8099ZM162.08 53.1055L166.572 53.8026L167.492 47.8735L163 47.1765L162.08 53.1055ZM157 47.1765C157 50.1349 159.156 52.6519 162.08 53.1055L163 47.1765L163 47.1765H157ZM157 42.8236V47.1765H163V42.8236H157ZM162.08 36.8945C159.156 37.3482 157 39.8652 157 42.8236H163L163 42.8236L162.08 36.8945ZM166.358 36.2307L162.08 36.8945L163 42.8236L167.278 42.1598L166.358 36.2307ZM165.323 34.8621C164.771 35.9675 164.308 37.1265 163.946 38.3293L169.69 40.0611C169.953 39.1891 170.289 38.3481 170.69 37.5451L165.323 34.8621ZM163.062 34.5247L165.585 37.9746L170.428 34.4326L167.905 30.9827L163.062 34.5247ZM163.663 26.7399C161.57 28.8319 161.316 32.1366 163.062 34.5247L167.905 30.9826L167.905 30.9829L163.663 26.7399ZM166.74 23.6621L163.663 26.7401L167.905 30.9827L170.983 27.9047L166.74 23.6621ZM174.525 23.0617C172.137 21.3154 168.832 21.5701 166.74 23.6622L170.983 27.9047L170.983 27.9048L174.525 23.0617ZM177.853 25.4953L174.525 23.0618L170.983 27.9047L174.311 30.3383L177.853 25.4953ZM178.323 23.7292C177.051 24.1341 175.83 24.6515 174.67 25.2695L177.493 30.5642C178.334 30.1155 179.221 29.7401 180.144 29.4464L178.323 23.7292ZM176.897 22.0799L176.269 26.1277L182.198 27.0479L182.826 23L176.897 22.0799Z" fill="white" mask="url(#path-7-inside-3)"/>
<circle cx="185" cy="45" r="10.1071" stroke="white" stroke-width="3" stroke-linecap="round"/>
<mask id="path-10-inside-4" fill="white">
<path fill-rule="evenodd" clip-rule="evenodd" d="M240.811 32.54C241.038 31.0782 242.296 30 243.776 30H246.23C247.709 30 248.968 31.0782 249.194 32.54L249.618 35.2719C250.494 35.5512 251.336 35.9078 252.135 36.3338L254.384 34.6894C255.578 33.8161 257.23 33.9436 258.276 34.9896L260.011 36.7249C261.057 37.7709 261.185 39.4232 260.311 40.6172L258.595 42.9641C258.976 43.7272 259.295 44.5268 259.545 45.3564L262.46 45.8086C263.922 46.0355 265 47.2939 265 48.7731V51.2273C265 52.7066 263.922 53.965 262.46 54.1918L259.374 54.6707C259.118 55.4189 258.805 56.1407 258.44 56.831L260.308 59.3848C261.181 60.5788 261.054 62.2311 260.008 63.2771L258.272 65.0124C257.226 66.0584 255.574 66.1858 254.38 65.3126L251.725 63.3708C251.074 63.6925 250.397 63.969 249.698 64.1962L249.192 67.46C248.965 68.9218 247.707 70 246.228 70H243.773C242.294 70 241.036 68.9218 240.809 67.46L240.302 64.1965C239.602 63.9689 238.924 63.6918 238.272 63.3692L235.618 65.3097C234.424 66.1829 232.772 66.0555 231.726 65.0095L229.991 63.2741C228.945 62.2281 228.817 60.5758 229.691 59.3818L231.558 56.8282C231.194 56.1387 230.882 55.4177 230.626 54.6704L227.54 54.1916C226.078 53.9648 225 52.7063 225 51.2271V48.7729C225 47.2937 226.078 46.0352 227.54 45.8084L230.454 45.3562C230.705 44.5263 231.024 43.7263 231.406 42.9629L229.69 40.6179C228.817 39.4239 228.945 37.7716 229.991 36.7256L231.726 34.9903C232.772 33.9443 234.424 33.8169 235.618 34.6901L237.865 36.3335C238.666 35.9067 239.51 35.5496 240.387 35.2701L240.811 32.54Z"/>
</mask>
<path d="M240.811 32.54L237.847 32.08L237.847 32.08L240.811 32.54ZM249.194 32.54L252.159 32.0801L252.159 32.08L249.194 32.54ZM249.618 35.2719L246.654 35.7318L246.938 37.5664L248.707 38.1302L249.618 35.2719ZM252.135 36.3338L250.724 38.9811L252.386 39.867L253.906 38.7553L252.135 36.3338ZM254.384 34.6894L252.613 32.2678L252.613 32.2678L254.384 34.6894ZM258.276 34.9896L260.397 32.8683L260.397 32.8681L258.276 34.9896ZM260.011 36.7249L262.133 34.6037L262.133 34.6036L260.011 36.7249ZM260.311 40.6172L257.89 38.8462L257.89 38.8463L260.311 40.6172ZM258.595 42.9641L256.173 41.1933L255.094 42.6694L255.911 44.3053L258.595 42.9641ZM259.545 45.3564L256.673 46.222L257.218 48.0312L259.085 48.3209L259.545 45.3564ZM262.46 45.8086L262 48.7731H262L262.46 45.8086ZM262.46 54.1918L262 51.2273L262 51.2273L262.46 54.1918ZM259.374 54.6707L258.914 51.7062L257.123 51.984L256.536 53.6983L259.374 54.6707ZM258.44 56.831L255.788 55.4296L254.911 57.088L256.019 58.602L258.44 56.831ZM260.308 59.3848L262.73 57.6141L262.729 57.6138L260.308 59.3848ZM260.008 63.2771L257.886 61.1556L257.886 61.1558L260.008 63.2771ZM258.272 65.0124L256.151 62.8911L256.151 62.8912L258.272 65.0124ZM254.38 65.3126L252.609 67.7341L252.609 67.7342L254.38 65.3126ZM251.725 63.3708L253.496 60.9493L252.026 59.8747L250.395 60.6818L251.725 63.3708ZM249.698 64.1962L248.771 61.3431L247.017 61.9133L246.734 63.7363L249.698 64.1962ZM249.192 67.46L252.157 67.92L252.157 67.9199L249.192 67.46ZM240.809 67.46L237.844 67.92L237.844 67.92L240.809 67.46ZM240.302 64.1965L243.267 63.7366L242.984 61.9133L241.229 61.3433L240.302 64.1965ZM238.272 63.3692L239.602 60.6804L237.97 59.8729L236.501 60.9477L238.272 63.3692ZM235.618 65.3097L237.389 67.7312L237.389 67.7312L235.618 65.3097ZM231.726 65.0095L229.605 67.1308L229.605 67.131L231.726 65.0095ZM229.991 63.2741L227.869 65.3954L227.869 65.3954L229.991 63.2741ZM229.691 59.3818L232.112 61.1529L232.112 61.1527L229.691 59.3818ZM231.558 56.8282L233.98 58.5991L235.086 57.0858L234.211 55.4277L231.558 56.8282ZM230.626 54.6704L233.464 53.6986L232.877 51.9838L231.086 51.7059L230.626 54.6704ZM227.54 54.1916L228 51.2271L228 51.2271L227.54 54.1916ZM227.54 45.8084L228 48.7729L228 48.7729L227.54 45.8084ZM230.454 45.3562L230.914 48.3207L232.781 48.031L233.327 46.2222L230.454 45.3562ZM231.406 42.9629L234.089 44.3043L234.907 42.6683L233.827 41.1919L231.406 42.9629ZM229.69 40.6179L227.269 42.3886L227.269 42.3889L229.69 40.6179ZM229.991 36.7256L232.112 38.8471L232.112 38.847L229.991 36.7256ZM231.726 34.9903L233.847 37.1116L233.847 37.1115L231.726 34.9903ZM235.618 34.6901L237.389 32.2686L237.389 32.2685L235.618 34.6901ZM237.865 36.3335L236.095 38.755L237.615 39.8668L239.277 38.9808L237.865 36.3335ZM240.387 35.2701L241.298 38.1287L243.067 37.5653L243.352 35.73L240.387 35.2701ZM243.776 27C240.817 27 238.3 29.1563 237.847 32.08L243.776 33L243.776 33V27ZM246.23 27H243.776V33H246.23V27ZM252.159 32.08C251.705 29.1564 249.188 27 246.23 27V33L246.23 33L252.159 32.08ZM252.583 34.812L252.159 32.0801L246.23 32.9999L246.654 35.7318L252.583 34.812ZM253.546 33.6864C252.589 33.1761 251.58 32.7485 250.529 32.4136L248.707 38.1302C249.409 38.3538 250.083 38.6395 250.724 38.9811L253.546 33.6864ZM253.906 38.7553L256.154 37.1109L252.613 32.2678L250.364 33.9122L253.906 38.7553ZM256.154 37.1109L256.155 37.1111L260.397 32.8681C258.305 30.7764 255.001 30.5214 252.613 32.2678L256.154 37.1109ZM256.155 37.1109L257.89 38.8462L262.133 34.6036L260.397 32.8683L256.155 37.1109ZM257.89 38.8462V38.8462L262.733 42.3882C264.479 40.0002 264.224 36.6956 262.133 34.6037L257.89 38.8462ZM257.89 38.8463L256.173 41.1933L261.017 44.735L262.733 42.3881L257.89 38.8463ZM262.418 44.4907C262.118 43.4958 261.735 42.5372 261.278 41.623L255.911 44.3053C256.217 44.9172 256.473 45.5579 256.673 46.222L262.418 44.4907ZM262.92 42.8441L260.005 42.3919L259.085 48.3209L262 48.7731L262.92 42.8441ZM268 48.7731C268 45.8147 265.844 43.2978 262.92 42.8441L262 48.7731L262 48.7731H268ZM268 51.2273V48.7731H262V51.2273H268ZM262.92 57.1564C265.844 56.7027 268 54.1857 268 51.2273H262L262 51.2273L262.92 57.1564ZM259.834 57.6352L262.92 57.1564L262 51.2273L258.914 51.7062L259.834 57.6352ZM261.093 58.2325C261.53 57.4047 261.905 56.5394 262.212 55.6431L256.536 53.6983C256.33 54.2983 256.08 54.8767 255.788 55.4296L261.093 58.2325ZM262.729 57.6138L260.862 55.0601L256.019 58.602L257.886 61.1558L262.729 57.6138ZM262.129 65.3986C264.221 63.3063 264.475 60.0017 262.73 57.6141L257.886 61.1555L257.886 61.1556L262.129 65.3986ZM260.394 67.1337L262.129 65.3984L257.886 61.1558L256.151 62.8911L260.394 67.1337ZM252.609 67.7342C254.997 69.4805 258.302 69.2258 260.394 67.1337L256.151 62.8912L256.151 62.891L252.609 67.7342ZM249.954 65.7923L252.609 67.7341L256.151 62.8911L253.496 60.9493L249.954 65.7923ZM250.626 67.0493C251.464 66.777 252.275 66.4455 253.055 66.0598L250.395 60.6818C249.874 60.9396 249.331 61.1611 248.771 61.3431L250.626 67.0493ZM252.157 67.9199L252.663 64.6561L246.734 63.7363L246.228 67.0001L252.157 67.9199ZM246.228 73C249.186 73 251.703 70.8437 252.157 67.92L246.228 67L246.228 67V73ZM243.773 73H246.228V67H243.773V73ZM237.844 67.92C238.298 70.8436 240.815 73 243.773 73V67L243.773 67L237.844 67.92ZM237.338 64.6565L237.844 67.92L243.773 67L243.267 63.7366L237.338 64.6565ZM236.941 66.058C237.722 66.4445 238.535 66.7768 239.376 67.0498L241.229 61.3433C240.668 61.1611 240.125 60.939 239.602 60.6804L236.941 66.058ZM237.389 67.7312L240.043 65.7907L236.501 60.9477L233.847 62.8881L237.389 67.7312ZM229.605 67.131C231.697 69.2226 235.001 69.4776 237.389 67.7312L233.848 62.8881L233.847 62.888L229.605 67.131ZM227.869 65.3954L229.605 67.1308L233.847 62.8882L232.112 61.1528L227.869 65.3954ZM227.269 57.6108C225.523 59.9988 225.778 63.3034 227.869 65.3954L232.112 61.1529V61.1529L227.269 57.6108ZM229.137 55.0574L227.269 57.611L232.112 61.1527L233.98 58.5991L229.137 55.0574ZM227.787 55.6422C228.094 56.5383 228.469 57.4025 228.905 58.2287L234.211 55.4277C233.919 54.8748 233.669 54.297 233.464 53.6986L227.787 55.6422ZM227.08 57.1561L230.166 57.6349L231.086 51.7059L228 51.2271L227.08 57.1561ZM222 51.2271C222 54.1855 224.156 56.7025 227.08 57.1561L228 51.2271L228 51.2271H222ZM222 48.7729V51.2271H228V48.7729H222ZM227.08 42.8439C224.156 43.2975 222 45.8145 222 48.7729H228L228 48.7729L227.08 42.8439ZM229.994 42.3917L227.08 42.8439L228 48.7729L230.914 48.3207L229.994 42.3917ZM228.722 41.6215C228.265 42.536 227.882 43.4949 227.582 44.4902L233.327 46.2222C233.527 45.5576 233.783 44.9166 234.089 44.3043L228.722 41.6215ZM227.269 42.3889L228.984 44.7339L233.827 41.1919L232.112 38.8469L227.269 42.3889ZM227.87 34.6042C225.777 36.6964 225.523 40.0011 227.269 42.3886L232.112 38.8472L232.112 38.8471L227.87 34.6042ZM229.605 32.869L227.869 34.6043L232.112 38.847L233.847 37.1116L229.605 32.869ZM237.389 32.2685C235.001 30.5223 231.697 30.7769 229.605 32.869L233.847 37.1115L233.848 37.1117L237.389 32.2685ZM239.636 33.912L237.389 32.2686L233.847 37.1116L236.095 38.755L239.636 33.912ZM239.477 32.4114C238.425 32.7466 237.414 33.1747 236.454 33.6862L239.277 38.9808C239.918 38.6387 240.594 38.3526 241.298 38.1287L239.477 32.4114ZM237.847 32.08L237.423 34.8101L243.352 35.73L243.776 32.9999L237.847 32.08Z" fill="white" mask="url(#path-10-inside-4)"/>
<circle cx="245" cy="50" r="7.78571" stroke="white" stroke-width="3" stroke-linecap="round"/>
<mask id="path-13-inside-5" fill="white">
<path fill-rule="evenodd" clip-rule="evenodd" d="M293.976 39.54C294.202 38.0782 295.461 37 296.94 37H298.065C299.544 37 300.803 38.0782 301.03 39.54L301.311 41.3494C302.033 41.5798 302.728 41.874 303.387 42.2254L304.878 41.1344C306.073 40.2612 307.725 40.3886 308.771 41.4346L309.566 42.2301C310.612 43.2761 310.74 44.9284 309.866 46.1224L308.716 47.6954C309.031 48.325 309.294 48.9847 309.5 49.6691L311.46 49.9732C312.922 50.2 314 51.4585 314 52.9377V54.0628C314 55.542 312.922 56.8005 311.46 57.0273L309.359 57.3533C309.147 57.9708 308.889 58.5666 308.588 59.1363L309.863 60.8799C310.736 62.0739 310.609 63.7262 309.563 64.7722L308.767 65.5677C307.721 66.6137 306.069 66.7411 304.875 65.8679L303.047 64.5314C302.511 64.7966 301.953 65.0246 301.376 65.2119L301.028 67.46C300.801 68.9218 299.542 70 298.063 70H296.938C295.459 70 294.2 68.9218 293.973 67.46L293.625 65.2121C293.047 65.0243 292.487 64.7957 291.949 64.5296L290.124 65.865C288.929 66.7382 287.277 66.6107 286.231 65.5648L285.436 64.7692C284.39 63.7233 284.262 62.071 285.135 60.877L286.411 59.1334C286.11 58.5645 285.853 57.9696 285.641 57.3531L283.54 57.027C282.078 56.8002 281 55.5417 281 54.0625V52.9375C281 51.4582 282.078 50.1998 283.54 49.9729L285.5 49.6688C285.706 48.9843 285.97 48.3245 286.284 47.6949L285.135 46.123C284.262 44.929 284.389 43.2767 285.435 42.2307L286.23 41.4352C287.277 40.3892 288.929 40.2617 290.123 41.1349L291.614 42.2253C292.274 41.8731 292.97 41.5784 293.695 41.3477L293.976 39.54Z"/>
</mask>
<path d="M293.976 39.54L296.94 40L296.94 40L293.976 39.54ZM301.03 39.54L298.065 40L298.065 40L301.03 39.54ZM301.311 41.3494L298.346 41.8094L298.631 43.6437L300.399 44.2076L301.311 41.3494ZM303.387 42.2254L301.976 44.8727L303.638 45.7587L305.158 44.6468L303.387 42.2254ZM304.878 41.1344L303.108 38.7128L303.107 38.7129L304.878 41.1344ZM308.771 41.4346L310.892 39.3134L310.892 39.3133L308.771 41.4346ZM309.566 42.2301L307.445 44.3513L307.445 44.3516L309.566 42.2301ZM309.866 46.1224L307.445 44.3513L307.445 44.3515L309.866 46.1224ZM308.716 47.6954L306.295 45.9245L305.215 47.4009L306.033 49.0368L308.716 47.6954ZM309.5 49.6691L306.628 50.5349L307.173 52.3439L309.04 52.6336L309.5 49.6691ZM311.46 49.9732L311 52.9377L311 52.9377L311.46 49.9732ZM311.46 57.0273L311 54.0628L311 54.0628L311.46 57.0273ZM309.359 57.3533L308.899 54.3888L307.108 54.6668L306.52 56.3816L309.359 57.3533ZM308.588 59.1363L305.935 57.7349L305.059 59.3933L306.166 60.9073L308.588 59.1363ZM309.863 60.8799L312.285 59.1092L312.285 59.1089L309.863 60.8799ZM309.563 64.7722L307.441 62.6509L307.441 62.651L309.563 64.7722ZM308.767 65.5677L310.889 67.6892L310.889 67.6889L308.767 65.5677ZM304.875 65.8679L306.646 63.4465L306.646 63.4463L304.875 65.8679ZM303.047 64.5314L304.818 62.1098L303.349 61.0354L301.718 61.8422L303.047 64.5314ZM301.376 65.2119L300.449 62.3588L298.695 62.9289L298.412 64.7518L301.376 65.2119ZM301.028 67.46L298.063 67L298.063 67L301.028 67.46ZM293.973 67.46L296.938 67L296.938 66.9999L293.973 67.46ZM293.625 65.2121L296.589 64.752L296.306 62.929L294.552 62.3589L293.625 65.2121ZM291.949 64.5296L293.28 61.8409L291.648 61.0332L290.179 62.1081L291.949 64.5296ZM290.124 65.865L291.894 68.2865L291.894 68.2865L290.124 65.865ZM286.231 65.5648L284.11 67.6859L284.11 67.686L286.231 65.5648ZM285.436 64.7692L287.557 62.6481L287.557 62.6478L285.436 64.7692ZM285.135 60.877L287.557 62.648L287.557 62.6479L285.135 60.877ZM286.411 59.1334L288.832 60.9044L289.939 59.3911L289.064 57.733L286.411 59.1334ZM285.641 57.3531L288.479 56.381L287.892 54.6665L286.101 54.3886L285.641 57.3531ZM283.54 57.027L284 54.0625L284 54.0625L283.54 57.027ZM283.54 49.9729L284 52.9375L284 52.9375L283.54 49.9729ZM285.5 49.6688L285.96 52.6333L287.827 52.3436L288.372 50.5345L285.5 49.6688ZM286.284 47.6949L288.968 49.0362L289.786 47.4002L288.706 45.9239L286.284 47.6949ZM285.135 46.123L282.713 47.8937L282.713 47.8939L285.135 46.123ZM285.435 42.2307L287.556 44.3519L287.557 44.3518L285.435 42.2307ZM286.23 41.4352L284.109 39.3137L284.109 39.314L286.23 41.4352ZM290.123 41.1349L288.352 43.5564L288.352 43.5565L290.123 41.1349ZM291.614 42.2253L289.843 44.6469L291.363 45.7586L293.025 44.8726L291.614 42.2253ZM293.695 41.3477L294.605 44.2064L296.375 43.6431L296.66 41.8078L293.695 41.3477ZM296.94 34C293.982 34 291.465 36.1564 291.011 39.08L296.94 40L296.94 40V34ZM298.065 34H296.94V40H298.065V34ZM303.994 39.08C303.541 36.1564 301.024 34 298.065 34V40L298.065 40L303.994 39.08ZM304.275 40.8894L303.994 39.08L298.065 40L298.346 41.8094L304.275 40.8894ZM304.798 39.578C303.98 39.1422 303.119 38.7772 302.222 38.4912L300.399 44.2076C300.948 44.3825 301.475 44.6058 301.976 44.8727L304.798 39.578ZM305.158 44.6468L306.649 43.5559L303.107 38.7129L301.616 39.8039L305.158 44.6468ZM306.649 43.556L306.649 43.5558L310.892 39.3133C308.8 37.2212 305.496 36.9665 303.108 38.7128L306.649 43.556ZM306.649 43.5557L307.445 44.3513L311.688 40.1089L310.892 39.3134L306.649 43.5557ZM307.445 44.3516L307.445 44.3513L312.288 47.8934C314.035 45.5054 313.78 42.2006 311.687 40.1086L307.445 44.3516ZM307.445 44.3515L306.295 45.9245L311.138 49.4663L312.288 47.8933L307.445 44.3515ZM312.373 48.8033C312.117 47.9538 311.79 47.135 311.399 46.354L306.033 49.0368C306.272 49.5149 306.471 50.0156 306.628 50.5349L312.373 48.8033ZM311.92 47.0087L309.96 46.7046L309.04 52.6336L311 52.9377L311.92 47.0087ZM317 52.9377C317 49.9793 314.844 47.4623 311.92 47.0087L311 52.9377L311 52.9377H317ZM317 54.0628V52.9377H311V54.0628H317ZM311.92 59.9918C314.844 59.5382 317 57.0212 317 54.0628H311L311 54.0628L311.92 59.9918ZM309.819 60.3179L311.92 59.9918L311 54.0628L308.899 54.3888L309.819 60.3179ZM311.24 60.5378C311.614 59.831 311.934 59.0917 312.197 58.3251L306.52 56.3816C306.36 56.85 306.164 57.3022 305.935 57.7349L311.24 60.5378ZM312.285 59.1089L311.009 57.3654L306.166 60.9073L307.442 62.6509L312.285 59.1089ZM311.684 66.8934C313.776 64.8015 314.031 61.4971 312.285 59.1092L307.441 62.6506L307.441 62.6509L311.684 66.8934ZM310.889 67.6889L311.684 66.8933L307.441 62.651L306.646 63.4465L310.889 67.6889ZM303.104 68.2893C305.492 70.036 308.797 69.7808 310.889 67.6892L306.646 63.4462L306.646 63.4465L303.104 68.2893ZM301.276 66.9529L303.104 68.2895L306.646 63.4463L304.818 62.1098L301.276 66.9529ZM302.304 68.065C303.019 67.8325 303.712 67.5496 304.377 67.2205L301.718 61.8422C301.31 62.0436 300.887 62.2167 300.449 62.3588L302.304 68.065ZM303.992 67.9201L304.341 65.6719L298.412 64.7518L298.063 67L303.992 67.9201ZM298.063 73C301.021 73 303.538 70.8436 303.992 67.92L298.063 67L298.063 67V73ZM296.938 73H298.063V67H296.938V73ZM291.009 67.92C291.462 70.8436 293.98 73 296.938 73V67L296.938 67L291.009 67.92ZM290.66 65.6722L291.009 67.9201L296.938 66.9999L296.589 64.752L290.66 65.6722ZM290.619 67.2183C291.286 67.5484 291.98 67.8322 292.697 68.0653L294.552 62.3589C294.113 62.2165 293.688 62.0429 293.28 61.8409L290.619 67.2183ZM291.894 68.2865L293.72 66.9512L290.179 62.1081L288.353 63.4434L291.894 68.2865ZM284.11 67.686C286.202 69.7781 289.506 70.0328 291.894 68.2865L288.353 63.4434L288.353 63.4435L284.11 67.686ZM283.314 66.8904L284.11 67.6859L288.353 63.4436L287.557 62.6481L283.314 66.8904ZM282.714 59.1059C280.967 61.494 281.222 64.7987 283.315 66.8907L287.557 62.6478L287.557 62.648L282.714 59.1059ZM283.989 57.3624L282.714 59.106L287.557 62.6479L288.832 60.9044L283.989 57.3624ZM282.803 58.3253C283.065 59.0903 283.385 59.8283 283.758 60.5338L289.064 57.733C288.836 57.3007 288.64 56.8489 288.479 56.381L282.803 58.3253ZM283.08 59.9915L285.181 60.3176L286.101 54.3886L284 54.0625L283.08 59.9915ZM278 54.0625C278 57.0209 280.156 59.5379 283.08 59.9916L284 54.0625L284 54.0625H278ZM278 52.9375V54.0625H284V52.9375H278ZM283.08 47.0084C280.156 47.462 278 49.979 278 52.9375H284L284 52.9375L283.08 47.0084ZM285.04 46.7043L283.08 47.0084L284 52.9375L285.96 52.6333L285.04 46.7043ZM283.601 46.3536C283.211 47.1341 282.884 47.9529 282.628 48.8031L288.372 50.5345C288.529 50.0157 288.729 49.5149 288.968 49.0362L283.601 46.3536ZM282.713 47.8939L283.863 49.4659L288.706 45.9239L287.556 44.352L282.713 47.8939ZM283.314 40.1094C281.222 42.2014 280.967 45.5058 282.713 47.8937L287.556 44.3522L287.556 44.3519L283.314 40.1094ZM284.109 39.314L283.314 40.1095L287.557 44.3518L288.352 43.5563L284.109 39.314ZM291.894 38.7135C289.506 36.9668 286.201 37.222 284.109 39.3137L288.352 43.5566L288.352 43.5564L291.894 38.7135ZM293.385 39.8038L291.894 38.7134L288.352 43.5565L289.843 44.6469L293.385 39.8038ZM292.785 38.489C291.886 38.7754 291.022 39.1412 290.202 39.578L293.025 44.8726C293.527 44.6051 294.055 44.3814 294.605 44.2064L292.785 38.489ZM291.011 39.08L290.731 40.8877L296.66 41.8078L296.94 40L291.011 39.08Z" fill="white" mask="url(#path-13-inside-5)"/>
<circle cx="297.5" cy="53.5" r="6.16071" stroke="white" stroke-width="3" stroke-linecap="round"/>
</svg>
