<svg width="86" height="114" viewBox="0 0 86 114" fill="none" xmlns="http://www.w3.org/2000/svg">
<path d="M54.7116 94.9984C51.0518 94.9984 48.0747 97.9813 48.0747 101.648C48.0747 105.315 51.0518 108.298 54.7116 108.298C58.3714 108.298 61.3486 105.315 61.3486 101.648C61.3486 97.9813 58.3695 94.9984 54.7116 94.9984ZM54.7116 104.498C53.1434 104.498 51.8672 103.22 51.8672 101.648C51.8672 100.077 53.1434 98.7983 54.7116 98.7983C56.2799 98.7983 57.556 100.077 57.556 101.648C57.556 103.22 56.2799 104.498 54.7116 104.498Z" fill="black"/>
<path d="M63.2447 70.2987C67.4279 70.2987 70.8298 66.8901 70.8298 62.6988C70.8298 58.5074 67.4279 55.0988 63.2447 55.0988C59.0616 55.0988 55.6597 58.5074 55.6597 62.6988C55.6597 66.8901 59.0597 70.2987 63.2447 70.2987ZM63.2447 58.8988C65.3363 58.8988 67.0373 60.6031 67.0373 62.6988C67.0373 64.7944 65.3363 66.4987 63.2447 66.4987C61.1532 66.4987 59.4522 64.7944 59.4522 62.6988C59.4522 60.6031 61.1532 58.8988 63.2447 58.8988Z" fill="black"/>
<path d="M17.7344 22.7992C18.2198 22.7992 18.7053 22.613 19.075 22.2425L22.8676 18.4426C23.609 17.6997 23.609 16.4989 22.8676 15.756C22.1261 15.0131 20.9277 15.0131 20.1863 15.756L16.3937 19.556C15.6523 20.2989 15.6523 21.4996 16.3937 22.2425C16.7635 22.613 17.2489 22.7992 17.7344 22.7992Z" fill="black"/>
<path d="M86 56.52C86 54.848 85.3496 53.2768 84.1701 52.095L83.1139 51.0367C84.9134 49.4407 85.9981 47.1322 85.9981 44.649C85.9981 39.9351 82.1695 36.0991 77.4649 36.0991C77.1198 36.0991 76.7785 36.1333 76.4409 36.1751C76.4826 35.835 76.5168 35.4968 76.5168 35.1491C76.5168 30.4352 72.6882 26.5992 67.9836 26.5992C67.6384 26.5992 67.2971 26.6334 66.9596 26.6752C67.0013 26.3351 67.0354 25.9969 67.0354 25.6492C67.0354 20.9354 63.2069 17.0993 58.5022 17.0993C58.1571 17.0993 57.8158 17.1335 57.4782 17.1753C57.52 16.8352 57.5541 16.497 57.5541 16.1493C57.5541 11.4355 53.7255 7.59943 49.0209 7.59943C46.5406 7.59943 44.2385 8.68812 42.6456 10.4893L41.14 8.98071L34.0043 1.8311C31.5676 -0.610367 27.6044 -0.610367 25.1715 1.8311L1.82468 25.2236C-0.608228 27.6651 -0.608228 31.6341 1.82468 34.0756L8.96034 41.2252L18.271 50.5541C15.6997 52.0285 13.9418 54.7739 13.9418 57.9488C13.9418 60.9185 15.4645 63.5366 17.7666 65.0699C17.8823 65.2238 18.0169 65.3758 18.1971 65.5297L38.5933 85.888V89.3003H34.8008V114H68.9336H84.1037V89.3003H80.3112V83.5434C83.9388 80.4635 86 76.0347 86 71.2486C86 67.9427 84.9703 64.7317 83.0873 62.03L84.1701 60.9451C85.3496 59.7633 86 58.192 86 56.52ZM82.2075 44.649C82.2075 46.1082 81.5362 47.459 80.4307 48.3482L73.7729 41.6774C74.6603 40.5697 76.0105 39.8971 77.4649 39.8971C80.0798 39.899 82.2075 42.0289 82.2075 44.649ZM72.7261 35.1491C72.7261 36.6083 72.0548 37.9591 70.9493 38.8483L64.2915 32.1775C65.179 31.0698 66.5291 30.3972 67.9836 30.3972C70.5985 30.3991 72.7261 32.529 72.7261 35.1491ZM63.2448 25.6492C63.2448 27.1084 62.5735 28.4593 61.468 29.3485L54.8102 22.6776C55.6976 21.57 57.0478 20.8974 58.5022 20.8974C61.1172 20.8993 63.2448 23.0291 63.2448 25.6492ZM49.0228 11.3994C51.6377 11.3994 53.7635 13.5293 53.7635 16.1493C53.7635 17.6085 53.0922 18.9594 51.9866 19.8486L45.3289 13.1778C46.2163 12.072 47.5664 11.3994 49.0228 11.3994ZM4.506 31.3909C3.55029 30.4314 3.55029 28.8716 4.506 27.9121L27.8528 4.51957C28.0899 4.28207 28.3667 4.10347 28.6607 3.98378C28.7934 3.92868 28.9432 3.93058 29.0835 3.90018C29.4211 3.82798 29.7548 3.82798 30.0923 3.90018C30.2327 3.93058 30.3825 3.92868 30.5152 3.98378C30.8091 4.10347 31.0841 4.28207 31.323 4.51957L35.7774 8.98261L8.96034 35.8521L4.506 31.3909ZM38.4587 11.6692L40.6925 13.9074L50.1738 23.4072L51.2604 24.4959L59.6552 32.9071L60.7417 33.9958L69.1365 42.407L70.2231 43.4957L79.7044 52.9956L81.4869 54.7815C82.4445 55.741 82.4445 57.299 81.4869 58.2585L80.6582 59.0907L58.1419 81.6529C57.1881 82.6105 55.6275 82.6143 54.6699 81.6529L39.5471 66.4987H41.4358C46.1405 66.4987 49.969 62.6626 49.969 57.9488C49.969 53.235 46.1405 49.3989 41.4358 49.3989H22.4788L11.6398 38.5386L38.4587 11.6692ZM21.4511 53.3167L22.238 53.2274C22.3158 53.216 22.3935 53.1989 22.4731 53.1989H41.4358C44.0508 53.1989 46.1765 55.3287 46.1765 57.9488C46.1765 60.5689 44.0508 62.6987 41.4358 62.6987H35.7546H30.392H22.4731C19.8582 62.6987 17.7325 60.5689 17.7325 57.9488C17.7344 55.6821 19.3291 53.7879 21.4511 53.3167ZM38.5933 110.198V93.0984H54.5713C60.3985 93.0984 65.1411 97.8502 65.1411 103.689V110.198H38.5933ZM80.3112 110.198H68.9336V103.689C68.9336 99.4975 67.1246 95.7317 64.2612 93.0984H80.3112V110.198ZM80.3586 64.7659C81.5608 66.7058 82.2075 68.9497 82.2075 71.2486C82.2075 75.1531 80.4098 78.7459 77.2734 81.1114L76.5187 81.6814V89.2984H54.5694H42.3839V84.1343L41.7146 83.5662C41.6292 83.4921 41.5382 83.4237 41.3732 83.3002L24.5401 66.4968H34.1826L51.9866 84.3376C53.2059 85.5574 54.8045 86.1673 56.4031 86.1673C58.0035 86.1673 59.604 85.5574 60.8214 84.3376L80.3586 64.7659Z" fill="black"/>
</svg>
