<svg width="91" height="102" viewBox="0 0 91 102" fill="none" xmlns="http://www.w3.org/2000/svg">
<path d="M82.574 47.6001C83.2388 47.598 83.84 47.2016 84.1092 46.5886L84.121 46.5614L90.8482 31.292C90.9464 31.0746 90.998 30.839 90.9999 30.6001V1.70016C91.011 0.772596 90.2748 0.0114219 89.3553 0.000159375C89.3419 -5.31249e-05 89.3282 -5.31249e-05 89.3147 0.000159375H58.9814C58.3396 -0.00345312 57.7516 0.361196 57.4647 0.940258L50.724 14.5402H50.7409C50.6199 14.775 50.5565 15.0356 50.5555 15.3001V28.9001H40.4444V1.70016C40.4556 0.772596 39.7193 0.0114219 38.7999 0.000159375C38.7864 -5.31249e-05 38.7727 -5.31249e-05 38.7592 0.000159375H8.42591C7.78723 -5.31249e-05 7.2031 0.363959 6.91768 0.940258L0.176944 14.5402H0.193796C0.0699351 14.7744 0.00358101 15.0349 0 15.3001V45.9001C0 46.8389 0.754541 47.6001 1.68518 47.6001H15.1666V54.4001H8.42591C7.78723 54.3999 7.2031 54.7639 6.91768 55.3402L0.176944 68.9401H0.193796C0.0699351 69.1743 0.00358101 69.4349 0 69.7001V100.3C0 101.239 0.754541 102 1.68518 102H32.0185C32.6833 101.998 33.2845 101.602 33.5537 100.989L33.5655 100.961L39.8546 86.7H50.5555V100.3C50.5555 101.239 51.31 102 52.2407 102H82.574C83.2388 101.998 83.84 101.602 84.1092 100.989L84.121 100.961L90.8482 85.6919C90.9464 85.4745 90.998 85.2389 90.9999 85V56.1001C91.011 55.1725 90.2748 54.4113 89.3553 54.4001C89.3419 54.3999 89.3282 54.3999 89.3147 54.4001H69.0925V47.6001H82.574ZM87.6295 30.2397L84.2591 37.8897V15.7013L87.6295 8.90135V30.2397ZM60.0228 3.40015H86.5881L81.5325 13.6001H54.9673L60.0228 3.40015ZM33.7037 28.9001V15.7013L37.074 8.90135V28.9001H33.7037ZM36.1657 32.3001L33.7037 37.8897V32.3001H36.1657ZM9.46736 3.40015H36.0326L30.977 13.6001H4.41181L9.46736 3.40015ZM3.37037 44.2001V17.0001H30.3333V28.9001H15.1666V32.3001H30.3333V44.2001H3.37037ZM9.46736 57.8001H15.1666V68.0001H4.41181L9.46736 57.8001ZM30.3333 98.6H3.37037V71.4H15.1666V86.7H18.537V71.4H30.3333V98.6ZM30.977 68.0001H18.537V57.8001H36.0326L30.977 68.0001ZM33.7037 92.2896V86.7H36.1657L33.7037 92.2896ZM37.074 83.3H33.7037V70.1012L37.074 63.3013V83.3ZM50.724 68.9401H50.7409C50.6199 69.175 50.5565 69.4355 50.5555 69.7001V83.3H40.4444V56.1001C40.4556 55.1725 39.7193 54.4113 38.7999 54.4001C38.7864 54.3999 38.7727 54.3999 38.7592 54.4001H18.537V47.6001H32.0185C32.6833 47.598 33.2845 47.2016 33.5537 46.5886L33.5655 46.5614L39.8546 32.3001H50.5555V45.9001C50.5555 46.8389 51.31 47.6001 52.2407 47.6001H65.7221V54.4001H58.9814C58.3396 54.3965 57.7516 54.7611 57.4647 55.3402L50.724 68.9401ZM65.7221 57.8001V68.0001H54.9673L60.0228 57.8001H65.7221ZM80.8888 98.6H53.9259V86.7H69.0925V83.3H53.9259V71.4H80.8888V98.6ZM87.6295 84.6396L84.2591 92.2896V70.1012L87.6295 63.3013V84.6396ZM86.5881 57.8001L81.5325 68.0001H69.0925V57.8001H86.5881ZM65.7221 28.9001V44.2001H53.9259V17.0001H80.8888V44.2001H69.0925V28.9001H65.7221Z" fill="black"/>
</svg>
