<svg width="50" height="50" viewBox="0 0 50 50" fill="none" xmlns="http://www.w3.org/2000/svg">
<path fill-rule="evenodd" clip-rule="evenodd" d="M0 25C0 11.1929 11.1929 0 25 0C38.8071 0 50 11.1929 50 25C50 38.8071 38.8071 50 25 50C11.1929 50 0 38.8071 0 25Z" fill="white"/>
<path d="M25.4167 23.8527L37.3753 17.1791L38.2795 15.8528C38.2314 15.6095 38.0971 15.3907 37.9002 15.2347C37.7033 15.0787 37.4565 14.9957 37.2031 15.0002H13.5764C13.3246 14.9952 13.0789 15.0768 12.8823 15.2307C12.6856 15.3845 12.5503 15.601 12.5 15.8423L13.4042 17.1686L25.4167 23.8527Z" fill="#032030"/>
<path d="M26.8375 26.0845C26.4236 26.3757 25.9266 26.5324 25.4167 26.5324C24.9068 26.5324 24.4097 26.3757 23.9958 26.0845L12.5 19.6741V33.9474C12.5 34.2266 12.6134 34.4943 12.8153 34.6917C13.0171 34.8891 13.2909 35 13.5764 35H37.2569C37.5424 35 37.8162 34.8891 38.0181 34.6917C38.2199 34.4943 38.3333 34.2266 38.3333 33.9474V19.6741L26.8375 26.0845Z" fill="#032030"/>
</svg>
