<svg width="100" height="100" viewBox="0 0 100 100" fill="none" xmlns="http://www.w3.org/2000/svg">
<path fill-rule="evenodd" clip-rule="evenodd" d="M50 97.9998C76.5088 97.9998 98 76.5093 98 50.0013C98 23.4933 76.5088 2.00281 50 2.00281C23.4912 2.00281 2 23.4933 2 50.0013C2 76.5093 23.4912 97.9998 50 97.9998Z" stroke="black" stroke-width="4" stroke-linecap="round" stroke-linejoin="round"/>
<path d="M36.6688 3.88116C28.8704 17.4647 24.4128 33.2147 24.4128 50.0013C24.4128 66.788 28.8672 82.5379 36.6688 96.1215" stroke="black" stroke-width="4" stroke-linecap="round" stroke-linejoin="round"/>
<path d="M63.3438 96.1157C71.1454 82.5353 75.5997 66.7886 75.5997 50.0019C75.5997 33.2216 71.1421 17.4813 63.3501 3.88812" stroke="black" stroke-width="4" stroke-linecap="round" stroke-linejoin="round"/>
<path d="M87.2936 80.2041C75.8824 75.1962 63.2712 72.4123 50.0136 72.4123C36.7432 72.4123 24.1256 75.2026 12.7048 80.2169" stroke="black" stroke-width="4" stroke-linecap="round" stroke-linejoin="round"/>
<path d="M12.7153 19.8025C24.1265 24.8199 36.7441 27.6038 50.0113 27.6038C63.2753 27.6038 75.8865 24.8167 87.3073 19.8025" stroke="black" stroke-width="4" stroke-linecap="round" stroke-linejoin="round"/>
<path d="M98 50.0016H2" stroke="black" stroke-width="4" stroke-linecap="round" stroke-linejoin="round"/>
<path d="M49.9968 2V97.997" stroke="black" stroke-width="4" stroke-linecap="round" stroke-linejoin="round"/>
</svg>
