<svg width="180" height="82" viewBox="0 0 180 82" fill="none" xmlns="http://www.w3.org/2000/svg">
<mask id="path-1-outside-1" maskUnits="userSpaceOnUse" x="0" y="0" width="54" height="82" fill="black">
<rect fill="white" width="54" height="82"/>
<path fill-rule="evenodd" clip-rule="evenodd" d="M10.517 14.9214L36.4783 41.4221L10 68.1803L13.7419 72L44 41.4221L14.1971 11L10.517 14.9214Z"/>
</mask>
<path fill-rule="evenodd" clip-rule="evenodd" d="M10.517 14.9214L36.4783 41.4221L10 68.1803L13.7419 72L44 41.4221L14.1971 11L10.517 14.9214Z" fill="white"/>
<path d="M36.4783 41.4221L41.4786 36.5236L46.3017 41.4468L41.454 46.3458L36.4783 41.4221ZM10.517 14.9214L5.51659 19.82L0.819574 15.0254L5.4127 10.1312L10.517 14.9214ZM10 68.1803L4.99961 73.0789L0.176576 68.1556L5.0243 63.2566L10 68.1803ZM13.7419 72L18.7176 76.9237L13.7169 81.9773L8.74155 76.8986L13.7419 72ZM44 41.4221L49.0004 36.5236L53.8234 41.4468L48.9757 46.3458L44 41.4221ZM14.1971 11L9.09287 6.20975L14.0887 0.886429L19.1975 6.10141L14.1971 11ZM31.4779 46.3207L5.51659 19.82L15.5173 10.0228L41.4786 36.5236L31.4779 46.3207ZM5.0243 63.2566L31.5026 36.4985L41.454 46.3458L14.9757 73.1039L5.0243 63.2566ZM15.0004 63.2817L18.7423 67.1014L8.74155 76.8986L4.99961 73.0789L15.0004 63.2817ZM8.76625 67.0763L39.0243 36.4985L48.9757 46.3458L18.7176 76.9237L8.76625 67.0763ZM38.9996 46.3207L9.19676 15.8986L19.1975 6.10141L49.0004 36.5236L38.9996 46.3207ZM19.3014 15.7902L15.6212 19.7117L5.4127 10.1312L9.09287 6.20975L19.3014 15.7902Z" fill="white" mask="url(#path-1-outside-1)"/>
<mask id="path-3-outside-2" maskUnits="userSpaceOnUse" x="63" y="0" width="54" height="82" fill="black">
<rect fill="white" x="63" width="54" height="82"/>
<path fill-rule="evenodd" clip-rule="evenodd" d="M73.517 14.9214L99.4783 41.4221L73 68.1803L76.7419 72L107 41.4221L77.1971 11L73.517 14.9214Z"/>
</mask>
<path fill-rule="evenodd" clip-rule="evenodd" d="M73.517 14.9214L99.4783 41.4221L73 68.1803L76.7419 72L107 41.4221L77.1971 11L73.517 14.9214Z" fill="white"/>
<path d="M99.4783 41.4221L104.479 36.5236L109.302 41.4468L104.454 46.3458L99.4783 41.4221ZM73.517 14.9214L68.5166 19.82L63.8196 15.0254L68.4127 10.1312L73.517 14.9214ZM73 68.1803L67.9996 73.0789L63.1766 68.1556L68.0243 63.2566L73 68.1803ZM76.7419 72L81.7176 76.9237L76.7169 81.9773L71.7416 76.8986L76.7419 72ZM107 41.4221L112 36.5236L116.823 41.4468L111.976 46.3458L107 41.4221ZM77.1971 11L72.0929 6.20975L77.0887 0.886429L82.1975 6.10141L77.1971 11ZM94.4779 46.3207L68.5166 19.82L78.5173 10.0228L104.479 36.5236L94.4779 46.3207ZM68.0243 63.2566L94.5026 36.4985L104.454 46.3458L77.9757 73.1039L68.0243 63.2566ZM78.0004 63.2817L81.7423 67.1014L71.7416 76.8986L67.9996 73.0789L78.0004 63.2817ZM71.7662 67.0763L102.024 36.4985L111.976 46.3458L81.7176 76.9237L71.7662 67.0763ZM102 46.3207L72.1968 15.8986L82.1975 6.10141L112 36.5236L102 46.3207ZM82.3014 15.7902L78.6212 19.7117L68.4127 10.1312L72.0929 6.20975L82.3014 15.7902Z" fill="white" mask="url(#path-3-outside-2)"/>
<mask id="path-5-outside-3" maskUnits="userSpaceOnUse" x="126" y="0" width="54" height="82" fill="black">
<rect fill="white" x="126" width="54" height="82"/>
<path fill-rule="evenodd" clip-rule="evenodd" d="M136.517 14.9214L162.478 41.4221L136 68.1803L139.742 72L170 41.4221L140.197 11L136.517 14.9214Z"/>
</mask>
<path fill-rule="evenodd" clip-rule="evenodd" d="M136.517 14.9214L162.478 41.4221L136 68.1803L139.742 72L170 41.4221L140.197 11L136.517 14.9214Z" fill="white"/>
<path d="M162.478 41.4221L167.479 36.5236L172.302 41.4468L167.454 46.3458L162.478 41.4221ZM136.517 14.9214L131.517 19.82L126.82 15.0254L131.413 10.1312L136.517 14.9214ZM136 68.1803L131 73.0789L126.177 68.1556L131.024 63.2566L136 68.1803ZM139.742 72L144.718 76.9237L139.717 81.9773L134.742 76.8986L139.742 72ZM170 41.4221L175 36.5236L179.823 41.4468L174.976 46.3458L170 41.4221ZM140.197 11L135.093 6.20975L140.089 0.886429L145.198 6.10141L140.197 11ZM157.478 46.3207L131.517 19.82L141.517 10.0228L167.479 36.5236L157.478 46.3207ZM131.024 63.2566L157.503 36.4985L167.454 46.3458L140.976 73.1039L131.024 63.2566ZM141 63.2817L144.742 67.1014L134.742 76.8986L131 73.0789L141 63.2817ZM134.766 67.0763L165.024 36.4985L174.976 46.3458L144.718 76.9237L134.766 67.0763ZM165 46.3207L135.197 15.8986L145.198 6.10141L175 36.5236L165 46.3207ZM145.301 15.7902L141.621 19.7117L131.413 10.1312L135.093 6.20975L145.301 15.7902Z" fill="white" mask="url(#path-5-outside-3)"/>
</svg>
